<svg xmlns="http://www.w3.org/2000/svg" xmlns:svg="http://www.w3.org/2000/svg" id="svg8" width="542.981" height="365.962" version="1.1" viewBox="0 0 143.664 96.827"><metadata id="metadata5"/><g id="layer2" transform="translate(4.9796638,5.0175033)"><rect style="fill:#fff;fill-opacity:.989301;fill-rule:evenodd;stroke-width:.297957" id="rect870" width="143.664" height="96.827" x="-4.98" y="-5.018"/></g><g id="layer1" transform="translate(35.109164,26.165416)"><rect id="rect3713" width="133.695" height="65.208" x="-30.13" y="-21.148" style="fill:#000;fill-opacity:1;stroke:none;stroke-width:1.10665;stroke-linejoin:round;stroke-miterlimit:4;stroke-dasharray:none;stroke-opacity:1"/><g id="text4530" aria-label="{}" style="font-style:normal;font-weight:400;font-size:10.5833px;line-height:1.25;font-family:sans-serif;letter-spacing:0;word-spacing:0;fill:#000;fill-opacity:1;stroke:none;stroke-width:.264583" transform="matrix(1,0,0,1.0358115,0.58678209,-3.9242328)"><path d="m -1.714732,34.67764 v 3.571875 h -1.537891 q -6.176367,0 -8.284765,-1.835547 -2.083594,-1.835547 -2.083594,-7.317382 v -5.928321 q 0,-3.745507 -1.339453,-5.184179 -1.339453,-1.438672 -4.861719,-1.438672 h -1.513086 v -3.547071 h 1.513086 q 3.54707,0 4.861719,-1.413868 1.339453,-1.438672 1.339453,-5.1345705 V 0.49677947 q 0,-5.48183567 2.083594,-7.29257817 2.108398,-1.8355461 8.284765,-1.8355461 h 1.537891 v 3.5470698 h -1.686719 q -3.497461,0 -4.564062,1.0914063 -1.066602,1.0914062 -1.066602,4.58886704 V 6.7475608 q 0,3.8943362 -1.141016,5.6554692 -1.116211,1.761134 -3.844726,2.381251 2.75332,0.669727 3.869531,2.430859 1.116211,1.761133 1.116211,5.630664 v 6.151563 q 0,3.497461 1.066602,4.588867 1.066601,1.091406 4.564062,1.091406 z" style="font-style:normal;font-variant:normal;font-weight:400;font-stretch:normal;font-size:50.8px;font-family:sans-serif;-inkscape-font-specification:sans-serif;fill:#fff;fill-opacity:.941176;stroke-width:.264583" id="path1547"/><path d="m 11.999382,34.67764 h 1.736328 q 3.472657,0 4.514453,-1.066601 1.066602,-1.066602 1.066602,-4.613672 v -6.151563 q 0,-3.869531 1.116211,-5.630664 1.116211,-1.761132 3.869531,-2.430859 -2.75332,-0.620117 -3.869531,-2.381251 -1.116211,-1.761134 -1.116211,-5.6554697 V 0.59599784 q 0,-3.52226554 -1.066602,-4.58886704 -1.041796,-1.0914063 -4.514453,-1.0914063 h -1.736328 v -3.5470693 h 1.562696 q 6.176367,0 8.235156,1.8355461 2.083593,1.810742 2.083593,7.29257767 V 6.449904 q 0,3.695898 1.339454,5.134571 1.339453,1.413868 4.861718,1.413868 h 1.537891 v 3.547071 h -1.537891 q -3.522265,0 -4.861718,1.438672 -1.339454,1.438672 -1.339454,5.184179 v 5.928321 q 0,5.481835 -2.083593,7.317382 -2.058789,1.835547 -8.235156,1.835547 h -1.562696 z" style="font-style:normal;font-variant:normal;font-weight:400;font-stretch:normal;font-size:50.8px;font-family:sans-serif;-inkscape-font-specification:sans-serif;fill:#fff;fill-opacity:.941176;stroke-width:.264583" id="path1549"/></g><flowRoot id="flowRoot4532" transform="scale(0.26458333)" xml:space="preserve" style="font-style:normal;font-weight:400;font-size:40px;line-height:1.25;font-family:sans-serif;letter-spacing:0;word-spacing:0;fill:#000;fill-opacity:1;stroke:none"><flowRegion id="flowRegion4534"><rect id="rect4536" width="185.714" height="444.286" x="214.286" y="-306.052"/></flowRegion><flowPara id="flowPara4538"/></flowRoot><rect style="fill:#fff;fill-opacity:.941176;stroke-width:.240128" id="rect4540" width="37" height="4.325" x="41.591" y="-12.775"/><rect style="fill:#fff;fill-opacity:.941176;stroke-width:.28627" id="rect4540-2" width="52.586" height="4.325" x="41.591" y="-3.957"/><rect style="fill:#fff;fill-opacity:.941176;stroke-width:.185086" id="rect4540-2-7" width="21.982" height="4.325" x="41.591" y="4.881"/><rect style="fill:#fff;fill-opacity:.941176;stroke-width:.162386" id="rect4540-2-9" width="16.92" height="4.325" x="68.853" y="4.881"/><rect style="fill:#fff;fill-opacity:.941176;stroke-width:.240129" id="rect4540-2-95" width="37" height="4.325" x="41.591" y="13.693"/><rect style="fill:#fff;fill-opacity:.941176;stroke-width:.12085" id="rect4540-2-2" width="9.371" height="4.325" x="41.591" y="22.519"/><rect style="fill:#fff;fill-opacity:.941176;stroke-width:.243144" id="rect4540-2-0" width="37.935" height="4.325" x="56.245" y="22.519"/><rect style="fill:#fff;fill-opacity:.941176;stroke-width:.174899" id="rect4540-2-8" width="19.628" height="4.325" x="41.591" y="31.348"/><rect style="fill:#fff;fill-opacity:.941176;stroke-width:.121271" id="rect4540-2-3" width="9.437" height="4.325" x="66.498" y="31.348"/><rect style="fill:#fff;fill-opacity:.941176;stroke-width:.142025" id="rect4540-2-3-5" width="12.943" height="4.325" x="81.237" y="31.35"/><g id="flowRoot4673" aria-label="onefetch" transform="matrix(0.26458333,0,0,0.26458333,-43.607248,-18.830088)" style="font-style:normal;font-weight:400;font-size:53.3333px;line-height:1.25;font-family:sans-serif;letter-spacing:0;word-spacing:0;fill:#000;fill-opacity:1;stroke:none;stroke-linejoin:round;stroke-opacity:1"><g id="text1362" aria-label="onefetch" style="font-style:normal;font-weight:400;font-size:64px;line-height:1.25;font-family:sans-serif;fill:#000;fill-opacity:1;stroke:none;stroke-linejoin:round;stroke-opacity:1"><path d="m 165.8304,277.51764 q -3.71875,0 -5.6875,2.6875 -1.9375,2.65625 -1.9375,7.6875 0,5.03125 1.9375,7.71875 1.96875,2.65625 5.6875,2.65625 3.65625,0 5.59375,-2.65625 1.9375,-2.6875 1.9375,-7.71875 0,-5.03125 -1.9375,-7.6875 -1.9375,-2.6875 -5.59375,-2.6875 z m 0,-8 q 9.03125,0 14.09375,4.875 5.09375,4.875 5.09375,13.5 0,8.625 -5.09375,13.5 -5.0625,4.875 -14.09375,4.875 -9.0625,0 -14.1875,-4.875 -5.09375,-4.875 -5.09375,-13.5 0,-8.625 5.09375,-13.5 5.125,-4.875 14.1875,-4.875 z" style="font-style:normal;font-variant:normal;font-weight:700;font-stretch:normal;font-size:64px;font-family:sans-serif;-inkscape-font-specification:'sans-serif Bold';fill:#000;fill-opacity:1;stroke:none;stroke-linejoin:round;stroke-opacity:1" id="path1520"/><path d="m 228.36165,284.04889 v 21.3125 h -11.25 v -3.46875 -12.84375 q 0,-4.53125 -0.21875,-6.25 -0.1875,-1.71875 -0.6875,-2.53125 -0.65625,-1.09375 -1.78125,-1.6875 -1.125,-0.625 -2.5625,-0.625 -3.5,0 -5.5,2.71875 -2,2.6875 -2,7.46875 v 17.21875 h -11.1875 v -35 h 11.1875 v 5.125 q 2.53125,-3.0625 5.375,-4.5 2.84375,-1.46875 6.28125,-1.46875 6.0625,0 9.1875,3.71875 3.15625,3.71875 3.15625,10.8125 z" style="font-style:normal;font-variant:normal;font-weight:700;font-stretch:normal;font-size:64px;font-family:sans-serif;-inkscape-font-specification:'sans-serif Bold';fill:#000;fill-opacity:1;stroke:none;stroke-linejoin:round;stroke-opacity:1" id="path1522"/><path d="m 273.73665,287.76764 v 3.1875 H 247.5804 q 0.40625,3.9375 2.84375,5.90625 2.4375,1.96875 6.8125,1.96875 3.53125,0 7.21875,-1.03125 3.71875,-1.0625 7.625,-3.1875 v 8.625 q -3.96875,1.5 -7.9375,2.25 -3.96875,0.78125 -7.9375,0.78125 -9.5,0 -14.78125,-4.8125 -5.25,-4.84375 -5.25,-13.5625 0,-8.5625 5.15625,-13.46875 5.1875,-4.90625 14.25,-4.90625 8.25,0 13.1875,4.96875 4.96875,4.96875 4.96875,13.28125 z m -11.5,-3.71875 q 0,-3.1875 -1.875,-5.125 -1.84375,-1.96875 -4.84375,-1.96875 -3.25,0 -5.28125,1.84375 -2.03125,1.8125 -2.53125,5.25 z" style="font-style:normal;font-variant:normal;font-weight:700;font-stretch:normal;font-size:64px;font-family:sans-serif;-inkscape-font-specification:'sans-serif Bold';fill:#000;fill-opacity:1;stroke:none;stroke-linejoin:round;stroke-opacity:1" id="path1524"/><path d="m 305.2054,256.73639 v 7.34375 h -6.1875 q -2.375,0 -3.3125,0.875 -0.9375,0.84375 -0.9375,2.96875 v 2.4375 h 9.5625 v 8 h -9.5625 v 27 h -11.1875 v -27 h -5.5625 v -8 h 5.5625 v -2.4375 q 0,-5.71875 3.1875,-8.4375 3.1875,-2.75 9.875,-2.75 z" style="font-style:normal;font-variant:normal;font-weight:700;font-stretch:normal;font-size:64px;font-family:sans-serif;-inkscape-font-specification:'sans-serif Bold';fill:#000;fill-opacity:1;stroke:none;stroke-linejoin:round;stroke-opacity:1" id="path1526"/><path d="m 344.98665,287.76764 v 3.1875 H 318.8304 q 0.40625,3.9375 2.84375,5.90625 2.4375,1.96875 6.8125,1.96875 3.53125,0 7.21875,-1.03125 3.71875,-1.0625 7.625,-3.1875 v 8.625 q -3.96875,1.5 -7.9375,2.25 -3.96875,0.78125 -7.9375,0.78125 -9.5,0 -14.78125,-4.8125 -5.25,-4.84375 -5.25,-13.5625 0,-8.5625 5.15625,-13.46875 5.1875,-4.90625 14.25,-4.90625 8.25,0 13.1875,4.96875 4.96875,4.96875 4.96875,13.28125 z m -11.5,-3.71875 q 0,-3.1875 -1.875,-5.125 -1.84375,-1.96875 -4.84375,-1.96875 -3.25,0 -5.28125,1.84375 -2.03125,1.8125 -2.53125,5.25 z" style="font-style:normal;font-variant:normal;font-weight:700;font-stretch:normal;font-size:64px;font-family:sans-serif;-inkscape-font-specification:'sans-serif Bold';fill:#000;fill-opacity:1;stroke:none;stroke-linejoin:round;stroke-opacity:1" id="path1528"/><path d="m 365.6429,260.42389 v 9.9375 h 11.53125 v 8 H 365.6429 v 14.84375 q 0,2.4375 0.96875,3.3125 0.96875,0.84375 3.84375,0.84375 h 5.75 v 8 h -9.59375 q -6.625,0 -9.40625,-2.75 -2.75,-2.78125 -2.75,-9.40625 v -14.84375 h -5.5625 v -8 h 5.5625 v -9.9375 z" style="font-style:normal;font-variant:normal;font-weight:700;font-stretch:normal;font-size:64px;font-family:sans-serif;-inkscape-font-specification:'sans-serif Bold';fill:#000;fill-opacity:1;stroke:none;stroke-linejoin:round;stroke-opacity:1" id="path1530"/><path d="m 412.3304,271.45514 v 9.125 q -2.28125,-1.5625 -4.59375,-2.3125 -2.28125,-0.75 -4.75,-0.75 -4.6875,0 -7.3125,2.75 -2.59375,2.71875 -2.59375,7.625 0,4.90625 2.59375,7.65625 2.625,2.71875 7.3125,2.71875 2.625,0 4.96875,-0.78125 2.375,-0.78125 4.375,-2.3125 v 9.15625 q -2.625,0.96875 -5.34375,1.4375 -2.6875,0.5 -5.40625,0.5 -9.46875,0 -14.8125,-4.84375 -5.34375,-4.875 -5.34375,-13.53125 0,-8.65625 5.34375,-13.5 5.34375,-4.875 14.8125,-4.875 2.75,0 5.40625,0.5 2.6875,0.46875 5.34375,1.4375 z" style="font-style:normal;font-variant:normal;font-weight:700;font-stretch:normal;font-size:64px;font-family:sans-serif;-inkscape-font-specification:'sans-serif Bold';fill:#000;fill-opacity:1;stroke:none;stroke-linejoin:round;stroke-opacity:1" id="path1532"/><path d="m 457.23665,284.04889 v 21.3125 h -11.25 v -3.46875 -12.78125 q 0,-4.59375 -0.21875,-6.3125 -0.1875,-1.71875 -0.6875,-2.53125 -0.65625,-1.09375 -1.78125,-1.6875 -1.125,-0.625 -2.5625,-0.625 -3.5,0 -5.5,2.71875 -2,2.6875 -2,7.46875 v 17.21875 h -11.1875 v -48.625 h 11.1875 v 18.75 q 2.53125,-3.0625 5.375,-4.5 2.84375,-1.46875 6.28125,-1.46875 6.0625,0 9.1875,3.71875 3.15625,3.71875 3.15625,10.8125 z" style="font-style:normal;font-variant:normal;font-weight:700;font-stretch:normal;font-size:64px;font-family:sans-serif;-inkscape-font-specification:'sans-serif Bold';fill:#000;fill-opacity:1;stroke:none;stroke-linejoin:round;stroke-opacity:1" id="path1534"/></g></g></g></svg>